HIERARCHY
ROOT pelvis
{
  OFFSET 0 100 0
  CHANNELS 6 Xposition Yposition Zposition Zrotation Xrotation Yrotation
  JOINT pelvis_right_femur
  {
    OFFSET -10.78128 -3.44521 -0.5502486
    CHANNELS 3 Zrotation Xrotation Yrotation
    JOINT right_femur_tibia
    {
      OFFSET -0.8047443 -44.0398 -0.1307829
      CHANNELS 3 Zrotation Xrotation Yrotation
      JOINT right_tibia_foot
      {
        OFFSET 3.006224 -47.83518 -5
        CHANNELS 3 Zrotation Xrotation Yrotation
        End Site
        {
          OFFSET 0 -5 15
        }
      }
    }
  }
  JOINT pelvis_left_femur
  {
    OFFSET 10.78128 -3.44521 -0.5502486
    CHANNELS 3 Zrotation Xrotation Yrotation
    JOINT left_femur_tibia
    {
      OFFSET 0.8047443 -44.0398 -0.1307829
      CHANNELS 3 Zrotation Xrotation Yrotation
      JOINT left_tibia_foot
      {
        OFFSET -4.370144 -48.10324 -4.275266
        CHANNELS 3 Zrotation Xrotation Yrotation
        End Site
        {
          OFFSET 0 -5 15
        }
      }
    }
  }
  JOINT pelvis_spine1
  {
    OFFSET 0 6.468898 -3.129235
    CHANNELS 3 Zrotation Xrotation Yrotation
    JOINT spine1
    {
      OFFSET 0 23.15396 4.99043
      CHANNELS 3 Zrotation Xrotation Yrotation
      JOINT spine2
      {
        OFFSET 0 20.79997 -5.064912
        CHANNELS 3 Zrotation Xrotation Yrotation
        JOINT neck
        {
          OFFSET 0 14.38658 9.616178
          CHANNELS 3 Zrotation Xrotation Yrotation
          End Site
          {
            OFFSET 0 20 0
          }
        }
      }
      JOINT right_manubrium
      {
        OFFSET -5.722621 16.35077 3.967754
        CHANNELS 3 Zrotation Xrotation Yrotation
        JOINT right_clavicle
        {
          OFFSET -13.16364 1.694482 -4.693211
          CHANNELS 3 Zrotation Xrotation Yrotation
          JOINT right_humerus
          {
            OFFSET -28.5034 -0.3100689 -2.792744
            CHANNELS 3 Zrotation Xrotation Yrotation
            JOINT right_radius
            {
              OFFSET -25.15693 0.02248979 -1.271978
              CHANNELS 3 Zrotation Xrotation Yrotation
              End Site
              {
                OFFSET -15 0 0
              }
            }
          }
        }
      }
      JOINT left_manubrium
      {
        OFFSET 5.722621 16.35077 3.967754
        CHANNELS 3 Zrotation Xrotation Yrotation
        JOINT left_clavicle
        {
          OFFSET 13.16364 1.694482 -4.693211
          CHANNELS 3 Zrotation Xrotation Yrotation
          JOINT left_humerus
          {
            OFFSET 29.39168 -1.063119 -2.237045
            CHANNELS 3 Zrotation Xrotation Yrotation
            JOINT left_radius
            {
              OFFSET 24.59957 -0.9528479 0.9047498
              CHANNELS 3 Zrotation Xrotation Yrotation
              End Site
              {
                OFFSET 15 -0 -0
              }
            }
          }
        }
      }
    }
  }
}
MOTION
Frames: 11
Frame Time: 0.0416666666667
0 103.5113 0 2.341149 0.1573879 0.02957291 3.917814 -13.75241 12.2063 -0 37.14482 -0 -1.982956 -21.29514 -2.620867 -8.561859 7.549974 -23.11242 -0 6.586506 -0 17.87608 -10.34937 29.30401 -2.817245 -2.736136 3.493017 4.106369 9.865865 -9.209469 0.9660674 20.45382 7.779201 3.510406 -28.63382 10.97962 6.108815 -18.17889 11.17451 91.01408 41.91199 -25.483 -0 0 8.574564 -1.65126 6.457287 2.348187 7.627309 -22.6869 -1.785377 -86.31198 20.08373 13.7594 0 0 -30.07702 20.89909 10.43674 -9.675935
0.3630644 104.4594 1.389 1.970476 1.102514 0.03805565 4.735622 -16.87991 12.03629 -0 36.22736 -0 -2.490297 -19.88353 -2.324118 -8.614784 8.256724 -23.1309 -0 7.042322 -0 18.0421 -11.33614 29.56515 -2.862844 -2.700832 3.484557 4.085647 9.85688 -9.167441 0.9613879 20.49113 7.830902 3.518581 -28.5974 11.03599 6.030983 -18.17803 11.15993 91.07028 42.08057 -25.40278 -0 0 8.377138 -1.689633 6.418712 2.409287 7.6869 -22.70998 -1.796186 -86.05916 19.82528 13.46491 0 0 -30.47974 21.30177 10.16172 -10.13975
0.6469825 104.6709 4.178344 1.139611 0.7962725 0.2097741 4.752012 -24.34982 5.037874 -0 24.08228 -0 -6.089698 -9.425977 -0.93504 -7.567202 10.43252 -18.44107 -0 8.30898 -0 14.13536 -15.88976 24.55741 -2.729386 -2.642709 3.556578 3.995157 9.927263 -9.080267 0.991267 20.52441 7.649832 3.449109 -28.27972 10.76239 6.058934 -18.1564 11.22002 90.59107 41.33303 -24.91952 -0 0 8.8851 -2.363656 6.774866 2.676102 7.419513 -22.50256 -1.874035 -86.63834 20.26682 14.21015 0 0 -29.02013 19.97629 10.74945 -8.666189
0.8643123 104.6104 7.818826 0.7662559 0.5805611 0.4555672 4.497241 -27.72948 2.018748 -0 18.09487 -0 -7.279434 -4.530067 -0.4574458 -7.049394 11.89504 -15.90536 -0 9.919225 -0 11.57829 -17.83204 21.79966 -2.649338 -2.603564 3.619816 3.903289 9.978081 -9.008889 1.010413 20.54286 7.550397 3.435929 -28.05497 10.59094 6.05771 -18.16429 11.23994 90.31288 40.92475 -24.59081 -0 0 9.210978 -2.803941 6.978222 2.816827 7.316486 -22.42409 -1.912002 -86.94782 20.41471 14.60061 0 0 -28.20523 19.32504 11.05558 -7.968896
1.017017 104.3311 12.41245 0.5576729 -0.254538 0.7889454 4.026931 -29.52301 -0.90144 -0 12.60029 -0 -8.176438 0.06640707 -0.1436924 -6.527532 13.42609 -13.09176 -0 12.78196 -0 8.911863 -18.72606 18.81842 -2.540676 -2.541882 3.707448 3.788973 10.04084 -8.898703 1.03605 20.58119 7.404883 3.392304 -27.73009 10.35131 6.050887 -18.17268 11.28245 89.8883 40.30421 -24.09088 -0 0 9.673948 -3.461618 7.284017 3.079262 7.116353 -22.25851 -1.978134 -87.42006 20.7026 15.21549 0 0 -26.99837 18.25034 11.4678 -6.789144
1.112332 104.052 17.79699 0.4095988 -1.222714 1.151764 3.774461 -29.89467 -2.718903 -0 9.219058 -0 -8.599883 3.190527 -0.1898717 -6.078611 14.77294 -10.93285 -0 16.31345 -0 6.374601 -18.73525 16.45016 -2.421761 -2.475624 3.821222 3.641012 10.11299 -8.765632 1.064259 20.61955 7.252385 3.363776 -27.3567 10.0864 6.034305 -18.20203 11.31948 89.43323 39.64977 -23.52593 -0 0 10.2118 -4.19865 7.608349 3.35415 6.930777 -22.10399 -2.043235 -87.93161 20.95945 15.87783 0 0 -25.7077 17.13989 11.88237 -5.583511
1.151583 103.9334 23.84592 0.2860899 -2.408594 1.464028 3.820117 -28.97948 -3.742983 -0 7.400225 -0 -8.789004 5.30662 -0.5174912 -5.633639 15.71737 -9.099503 -0 20.96395 -0 4.06804 -17.83759 14.57639 -2.274541 -2.391532 3.980573 3.441692 10.20224 -8.583303 1.098902 20.66938 7.065674 3.335239 -26.86947 9.753581 6.003185 -18.25705 11.36389 88.86157 38.83186 -22.78989 -0 0 10.91826 -5.154126 8.012505 3.716275 6.703572 -21.9103 -2.123809 -88.58818 21.26589 16.73234 0 0 -24.09119 15.73355 12.35499 -4.055629
1.137002 104.1327 30.36997 0.1507386 -3.598963 1.634133 4.200708 -27.08241 -3.924141 -0 7.003829 -0 -8.822912 6.320796 -1.073179 -5.194915 15.96986 -7.702881 -0 26.45608 -0 2.263758 -16.23811 13.40543 -2.101394 -2.295823 4.196067 3.184158 10.3075 -8.349548 1.138537 20.72512 6.853751 3.31848 -26.27233 9.360282 5.953826 -18.35328 11.41035 88.1955 37.87853 -21.89741 -0 0 11.80845 -6.312462 8.480178 4.149151 6.454709 -21.69553 -2.214687 -89.38924 21.59739 17.77797 0 0 -22.19382 14.07715 12.85137 -2.256541
1.067888 104.7357 37.17126 0.0119476 -4.786432 1.580112 4.796348 -24.31455 -3.504063 -0 7.560843 -0 -8.851492 6.41416 -1.749677 -4.752023 15.31149 -6.661557 -0 32.63053 -0 1.095035 -14.11664 12.94129 -1.899083 -2.187509 4.483393 2.858887 10.42908 -8.051845 1.182389 20.78851 6.615343 3.314611 -25.54379 8.899105 5.878652 -18.5053 11.46137 87.4247 36.76271 -20.82193 -0 0 12.92412 -7.716693 9.020732 4.67737 6.172463 -21.44974 -2.320542 -90.3754 21.96975 19.07353 0 0 -19.96971 12.09746 13.34705 -0.09598489
0.9426863 105.7574 44.05978 -0.1056254 -5.950779 1.258467 5.427824 -20.85333 -2.74925 -0 8.563335 -0 -8.955802 5.780078 -2.43211 -4.305133 13.65121 -5.937296 -0 38.98418 -0 0.5017503 -11.79217 13.08901 -1.669836 -2.071129 4.853942 2.463046 10.56469 -7.687115 1.227268 20.85673 6.359799 3.329625 -24.68449 8.377741 5.769693 -18.72915 11.51595 86.57313 35.49915 -19.57799 -0 0 14.27831 -9.363719 9.62249 5.30187 5.86109 -21.18018 -2.442714 -91.55843 22.37527 20.64105 0 0 -17.45842 9.801034 13.78922 2.43154
0.7595941 107.1346 50.87573 -0.1686366 -7.120421 0.6743062 5.932332 -16.82677 -1.899022 -0 9.573763 -0 -9.1304 4.607769 -3.043472 -3.843516 11.01093 -5.463701 -0 44.89809 -0 0.2670099 -9.5769 13.68513 -1.416825 -1.950276 5.315158 1.998266 10.71168 -7.256178 1.268527 20.92782 6.09841 3.367144 -23.6998 7.806694 5.617729 -19.03729 11.57428 85.67385 34.10883 -18.19159 -0 0 15.86643 -11.24292 10.27135 6.024965 5.521678 -20.89448 -2.584884 -92.9404 22.80427 22.49354 0 0 -14.72333 7.207403 14.11516 5.323974
